<svg version="1.1" id="svg552" xml:space="preserve" width="300" height="300" viewBox="0 0 682.66669 682.66669" xmlns="http://www.w3.org/2000/svg" xmlns:svg="http://www.w3.org/2000/svg" xmlns:xlink="http://www.w3.org/1999/xlink" xmlns:svgjs="http://svgjs.dev/svgjs"><g transform="matrix(1,0,0,1,0,0)"><defs id="defs556"><clipPath clipPathUnits="userSpaceOnUse" id="clipPath566"><path d="M 0,512 H 512 V 0 H 0 Z" id="path564" fill="#ffffffff" data-original-color="#000000ff" stroke="none"/></clipPath></defs><g id="g558" transform="matrix(1.3333333,0,0,-1.3333333,0,682.66667)"><g id="g560"><g id="g562" clip-path="url(#clipPath566)"><g id="g568" transform="translate(136,232)"><path d="m 0,0 c 0,-39.765 60.889,-72 136,-72 75.111,0 136,32.235 136,72" style="stroke-linecap: round; stroke-linejoin: round; stroke-miterlimit: 10; stroke-dasharray: none; stroke-opacity: 1;" id="path570" fill="none" stroke="#ffffffff" data-original-stroke-color="#000000ff" stroke-width="30" data-original-stroke-width="30"/></g><g id="g572" transform="translate(136,322.0264)"><path d="m 0,0 v -154.026 c 0,-39.765 60.889,-72 136,-72 75.111,0 136,32.235 136,72 V 0" style="stroke-linecap: round; stroke-linejoin: round; stroke-miterlimit: 10; stroke-dasharray: none; stroke-opacity: 1;" id="path574" fill="none" stroke="#ffffffff" data-original-stroke-color="#000000ff" stroke-width="30" data-original-stroke-width="30"/></g><g id="g576" transform="translate(272,264)"><path d="M 0,0 -225,96 0,192 225,96 Z" style="stroke-linecap: round; stroke-linejoin: round; stroke-miterlimit: 10; stroke-dasharray: none; stroke-opacity: 1;" id="path578" fill="none" stroke="#ffffffff" data-original-stroke-color="#000000ff" stroke-width="30" data-original-stroke-width="30"/></g><g id="g580" transform="translate(47,136)"><path d="m 0,0 c -17.673,0 -32,-14.327 -32,-32 v -48 h 64 v 48 C 32,-14.327 17.673,0 0,0 Z" style="stroke-linecap: round; stroke-linejoin: round; stroke-miterlimit: 10; stroke-dasharray: none; stroke-opacity: 1;" id="path582" fill="none" stroke="#ffffffff" data-original-stroke-color="#000000ff" stroke-width="30" data-original-stroke-width="30"/></g><g id="g584" transform="translate(47,360)"><path d="M 0,0 V -224" style="stroke-linecap: round; stroke-linejoin: round; stroke-miterlimit: 10; stroke-dasharray: none; stroke-opacity: 1;" id="path586" fill="none" stroke="#ffffffff" data-original-stroke-color="#000000ff" stroke-width="30" data-original-stroke-width="30"/></g></g></g></g></g></svg>