<svg clip-rule="evenodd" fill-rule="evenodd" stroke-linejoin="round" stroke-miterlimit="2" viewBox="0 0 64 64" xmlns="http://www.w3.org/2000/svg" width="300" height="300" version="1.1" xmlns:xlink="http://www.w3.org/1999/xlink" xmlns:svgjs="http://svgjs.dev/svgjs"><g transform="matrix(1,0,0,1,0,0)"><g transform="translate(-1688 -328)"><path d="m1735 358c-9.38 0-17 7.617-17 17s7.62 17 17 17 17-7.617 17-17-7.62-17-17-17zm0 4c7.17 0 13 5.825 13 13s-5.83 13-13 13-13-5.825-13-13 5.83-13 13-13zm-28.8-26h-8.2c-5.52 0-10 4.477-10 10v1.969.066 19.965c0 7.732 6.27 14 14 14h12.6c1.1 0 2-.896 2-2s-.9-2-2-2c0 0-6.35 0-12.6 0-5.52 0-10-4.477-10-10v-17.611l10 1.785v1.826c0 1.104.9 2 2 2s2-.896 2-2v-1.111l11.65 2.08c.23.041.47.041.7 0l11.65-2.08v1.111c0 1.104.9 2 2 2s2-.896 2-2v-1.826l10-1.785v6.723c0 1.104.9 2 2 2s2-.896 2-2v-9.077c0-.022 0-.044 0-.066v-1.969c0-5.523-4.48-10-10-10h-8.2c-.93-4.564-4.96-8-9.8-8-1.32 0-2.68 0-4 0-4.84 0-8.87 3.436-9.8 8zm34.8 37h-4v-7c0-1.104-.9-2-2-2s-2 .896-2 2v9c0 1.105.89 2 2 2h6c1.1 0 2-.896 2-2s-.9-2-2-2zm3-26.674v-.326c0-3.314-2.69-6-6-6h-40c-3.31 0-6 2.686-6 6v.326l10 1.785v-1.111c0-1.104.9-2 2-2s2 .896 2 2v1.826l12 2.142 12-2.142v-1.826c0-1.104.9-2 2-2s2 .896 2 2v1.111zm-18.34-10.326c-.82-2.33-3.05-4-5.66-4h-4c-2.61 0-4.84 1.67-5.66 4z" fill="#ffffffff" data-original-color="#000000ff" stroke="none"/></g></g></svg>