<svg height="300" viewBox="0 0 32 32" width="300" xmlns="http://www.w3.org/2000/svg" version="1.1" xmlns:xlink="http://www.w3.org/1999/xlink" xmlns:svgjs="http://svgjs.dev/svgjs"><g transform="matrix(1,0,0,1,0,0)"><g id="Layer_2" data-name="Layer 2"><path d="m24.707 13.935a1 1 0 0 0 -1.023-.242l-14.006 4.669a1 1 0 0 0 -.265 1.762l2.67 1.908-3.833 3.834a1 1 0 0 0 0 1.414l3.112 3.112a1 1 0 0 0 1.414 0l3.834-3.833 1.908 2.67a1 1 0 0 0 1.761-.265l4.669-14.006a1 1 0 0 0 -.241-1.023zm-5.707 12.533-1.452-2.032a1 1 0 0 0 -.731-.416.986.986 0 0 0 -.79.29l-3.962 3.961-1.7-1.7 3.961-3.962a1 1 0 0 0 -.126-1.52l-2.033-1.453 10.246-3.415z" fill="#ffffffff" data-original-color="#000000ff" stroke="none"/><path d="m27.7 1h-23.4a3.306 3.306 0 0 0 -3.3 3.3v19.4a3.306 3.306 0 0 0 3.3 3.3h.7a1 1 0 0 0 0-2h-.7a1.3 1.3 0 0 1 -1.3-1.3v-14.7h26v14.7a1.3 1.3 0 0 1 -1.3 1.3h-3.7a1 1 0 0 0 0 2h3.7a3.306 3.306 0 0 0 3.3-3.3v-19.4a3.306 3.306 0 0 0 -3.3-3.3zm1.3 6h-26v-2.7a1.3 1.3 0 0 1 1.3-1.3h23.4a1.3 1.3 0 0 1 1.3 1.3z" fill="#ffffffff" data-original-color="#000000ff" stroke="none"/><circle cx="6" cy="5" r="1" fill="#ffffffff" data-original-color="#000000ff" stroke="none"/><circle cx="9" cy="5" r="1" fill="#ffffffff" data-original-color="#000000ff" stroke="none"/><circle cx="12" cy="5" r="1" fill="#ffffffff" data-original-color="#000000ff" stroke="none"/></g></g></svg>