<svg height="300" viewBox="0 0 48 48" width="300" xmlns="http://www.w3.org/2000/svg" version="1.1" xmlns:xlink="http://www.w3.org/1999/xlink" xmlns:svgjs="http://svgjs.dev/svgjs"><g transform="matrix(1,0,0,1,0,0)"><g id="Resume"><path d="m43 8.94c0-.56.27-.09-8.28-8.65-.44-.42 1.47-.29-28.72-.29a1 1 0 0 0 -1 1v46a1 1 0 0 0 1 1h36a1 1 0 0 0 1-1c0-43.49 0-37.38 0-38.06zm-3.41-.94h-4.59v-4.59zm-32.59 38v-44h26v7a1 1 0 0 0 1 1h7v36z" fill="#ffffffff" data-original-color="#000000ff" stroke="none"/><path d="m19 23a9 9 0 1 0 -9-9 9 9 0 0 0 9 9zm-3.9-3.19c2.56-3.72 5.24-3.72 7.8 0a7 7 0 0 1 -7.8 0zm1.9-6.81a2 2 0 1 1 2 2 2 2 0 0 1 -2-2zm2-6a7 7 0 0 1 5.39 11.46 9.93 9.93 0 0 0 -2.62-2.59 4 4 0 1 0 -5.54 0 9.93 9.93 0 0 0 -2.62 2.59 7 7 0 0 1 5.39-11.46z" fill="#ffffffff" data-original-color="#000000ff" stroke="none"/><path d="m37 15h-6a1 1 0 0 0 0 2h6a1 1 0 0 0 0-2z" fill="#ffffffff" data-original-color="#000000ff" stroke="none"/><path d="m37 20h-6a1 1 0 0 0 0 2h6a1 1 0 0 0 0-2z" fill="#ffffffff" data-original-color="#000000ff" stroke="none"/><path d="m37 26h-26a1 1 0 0 0 0 2h26a1 1 0 0 0 0-2z" fill="#ffffffff" data-original-color="#000000ff" stroke="none"/><path d="m37 31h-26a1 1 0 0 0 0 2h26a1 1 0 0 0 0-2z" fill="#ffffffff" data-original-color="#000000ff" stroke="none"/><path d="m37 36h-26a1 1 0 0 0 0 2h26a1 1 0 0 0 0-2z" fill="#ffffffff" data-original-color="#000000ff" stroke="none"/><path d="m31 41h-20a1 1 0 0 0 0 2h20a1 1 0 0 0 0-2z" fill="#ffffffff" data-original-color="#000000ff" stroke="none"/></g></g></svg>